<svg width="22" height="18" viewBox="0 0 22 18" fill="none" xmlns="http://www.w3.org/2000/svg">
<path d="M19.6667 0.333496H2.33333C1.14166 0.333496 0.177497 1.3085 0.177497 2.50016L0.166664 15.5002C0.166664 16.6918 1.14166 17.6668 2.33333 17.6668H19.6667C20.8583 17.6668 21.8333 16.6918 21.8333 15.5002V2.50016C21.8333 1.3085 20.8583 0.333496 19.6667 0.333496ZM19.2333 4.93766L11.5742 9.726C11.2275 9.94266 10.7725 9.94266 10.4258 9.726L2.76666 4.93766C2.65804 4.87668 2.56291 4.7943 2.48704 4.69549C2.41118 4.59668 2.35615 4.48351 2.32529 4.36281C2.29443 4.24212 2.28838 4.11643 2.3075 3.99333C2.32663 3.87023 2.37053 3.75229 2.43655 3.64666C2.50258 3.54102 2.58935 3.44987 2.69162 3.37874C2.79389 3.30761 2.90952 3.25797 3.03153 3.23282C3.15354 3.20767 3.27939 3.20754 3.40145 3.23244C3.52351 3.25734 3.63925 3.30674 3.74166 3.37766L11 7.91683L18.2583 3.37766C18.3607 3.30674 18.4765 3.25734 18.5985 3.23244C18.7206 3.20754 18.8465 3.20767 18.9685 3.23282C19.0905 3.25797 19.2061 3.30761 19.3084 3.37874C19.4106 3.44987 19.4974 3.54102 19.5634 3.64666C19.6295 3.75229 19.6734 3.87023 19.6925 3.99333C19.7116 4.11643 19.7056 4.24212 19.6747 4.36281C19.6438 4.48351 19.5888 4.59668 19.513 4.69549C19.4371 4.7943 19.342 4.87668 19.2333 4.93766Z" fill="white"/>
</svg>
