<svg width="22" height="22" viewBox="0 0 22 22" fill="none" xmlns="http://www.w3.org/2000/svg">
<path d="M14.5181 15.4525L16.3381 13.6325C16.5833 13.3904 16.8934 13.2247 17.2309 13.1555C17.5684 13.0863 17.9187 13.1165 18.2394 13.2425L20.4575 14.1282C20.7815 14.2597 21.0594 14.4842 21.256 14.7734C21.4527 15.0625 21.5593 15.4035 21.5625 15.7532V19.8157C21.5606 20.0535 21.5106 20.2886 21.4155 20.5066C21.3204 20.7247 21.1821 20.9212 21.009 21.0844C20.836 21.2476 20.6317 21.3741 20.4084 21.4563C20.1852 21.5385 19.9476 21.5746 19.71 21.5625C4.16687 20.5957 1.03063 7.43316 0.4375 2.39566C0.409967 2.14828 0.435123 1.89788 0.511314 1.66092C0.587505 1.42397 0.713004 1.20583 0.879555 1.02086C1.04611 0.835885 1.24993 0.688275 1.47763 0.587735C1.70532 0.487195 1.95173 0.436006 2.20063 0.437533H6.125C6.4752 0.43857 6.81707 0.54435 7.10666 0.74127C7.39625 0.938189 7.6203 1.21724 7.75 1.54253L8.63562 3.76066C8.76583 4.08003 8.79905 4.43068 8.73113 4.76882C8.66322 5.10696 8.49718 5.41759 8.25375 5.66191L6.43375 7.48191C6.43375 7.48191 7.48187 14.575 14.5181 15.4525Z" fill="white"/>
</svg>
